<svg xmlns="http://www.w3.org/2000/svg" width="900" height="480" viewBox="0 0 900 480" role="img" aria-labelledby="title desc">
  <title id="title">ORC Robotics organization snapshot</title>
  <desc id="desc">A pie style chart showing ORC Robotics repositories and language distribution.</desc>
  <rect x="20" y="20" width="860" height="440" rx="28" fill="#0f172a" />
  <text x="52" y="78" fill="#f8fafc" font-size="30" font-family="Segoe UI, Arial, sans-serif" font-weight="700">
    ORC Robotics Snapshot
  </text>
  <text x="52" y="108" fill="#94a3b8" font-size="16" font-family="Segoe UI, Arial, sans-serif">
    Repository footprint and language distribution
  </text>
  <rect x="690" y="48" width="148" height="34" rx="17" fill="#123b2a" />
  <text x="764" y="70" fill="#9ae6b4" font-size="14" font-family="Segoe UI, Arial, sans-serif" text-anchor="middle">
    5 private repos included
  </text>

  <path d="M 230.00 114.00 A 126.00 126.00 0 0 1 306.60 340.04 L 273.77 297.17 A 72.00 72.00 0 0 0 230.00 168.00 Z" fill="#f34b7d" stroke="#0f172a" stroke-width="2" /><path d="M 306.60 340.04 A 126.00 126.00 0 0 1 104.16 246.33 L 158.09 243.62 A 72.00 72.00 0 0 0 273.77 297.17 Z" fill="#3572A5" stroke="#0f172a" stroke-width="2" /><path d="M 104.16 246.33 A 126.00 126.00 0 0 1 209.51 115.68 L 218.29 168.96 A 72.00 72.00 0 0 0 158.09 243.62 Z" fill="#3178c6" stroke="#0f172a" stroke-width="2" /><path d="M 209.51 115.68 A 126.00 126.00 0 0 1 220.51 114.36 L 224.58 168.20 A 72.00 72.00 0 0 0 218.29 168.96 Z" fill="#012456" stroke="#0f172a" stroke-width="2" /><path d="M 220.51 114.36 A 126.00 126.00 0 0 1 227.63 114.02 L 228.64 168.01 A 72.00 72.00 0 0 0 224.58 168.20 Z" fill="#663399" stroke="#0f172a" stroke-width="2" /><path d="M 227.63 114.02 A 126.00 126.00 0 0 1 228.42 114.01 L 229.10 168.01 A 72.00 72.00 0 0 0 228.64 168.01 Z" fill="#f1e05a" stroke="#0f172a" stroke-width="2" /><path d="M 228.42 114.01 A 126.00 126.00 0 0 1 230.00 114.00 L 230.00 168.00 A 72.00 72.00 0 0 0 229.10 168.01 Z" fill="#94a3b8" stroke="#0f172a" stroke-width="2" />

  <text x="230" y="232" fill="#f8fafc" font-size="52" font-family="Segoe UI, Arial, sans-serif" font-weight="700" text-anchor="middle">
    6
  </text>
  <text x="230" y="264" fill="#94a3b8" font-size="18" font-family="Segoe UI, Arial, sans-serif" text-anchor="middle">
    repositories
  </text>
  <text x="230" y="292" fill="#cbd5e1" font-size="14" font-family="Segoe UI, Arial, sans-serif" text-anchor="middle">
    1 public / 5 private
  </text>

  <text x="520" y="88" fill="#f8fafc" font-size="24" font-family="Segoe UI, Arial, sans-serif" font-weight="700">
    Language Distribution
  </text>
  <text x="520" y="110" fill="#94a3b8" font-size="15" font-family="Segoe UI, Arial, sans-serif">
    Calculated from the organization code footprint
  </text>
  
      <circle cx="520" cy="122" r="8" fill="#f34b7d" />
      <text x="540" y="127" fill="#e2e8f0" font-size="18" font-family="Segoe UI, Arial, sans-serif">
        C++
      </text>
      <text x="810" y="127" fill="#f8fafc" font-size="18" font-family="Segoe UI, Arial, sans-serif" text-anchor="end">
        39.6%
      </text>
      <circle cx="520" cy="164" r="8" fill="#3572A5" />
      <text x="540" y="169" fill="#e2e8f0" font-size="18" font-family="Segoe UI, Arial, sans-serif">
        Python
      </text>
      <text x="810" y="169" fill="#f8fafc" font-size="18" font-family="Segoe UI, Arial, sans-serif" text-anchor="end">
        34.6%
      </text>
      <circle cx="520" cy="206" r="8" fill="#3178c6" />
      <text x="540" y="211" fill="#e2e8f0" font-size="18" font-family="Segoe UI, Arial, sans-serif">
        TypeScript
      </text>
      <text x="810" y="211" fill="#f8fafc" font-size="18" font-family="Segoe UI, Arial, sans-serif" text-anchor="end">
        23.2%
      </text>
      <circle cx="520" cy="248" r="8" fill="#012456" />
      <text x="540" y="253" fill="#e2e8f0" font-size="18" font-family="Segoe UI, Arial, sans-serif">
        PowerShell
      </text>
      <text x="810" y="253" fill="#f8fafc" font-size="18" font-family="Segoe UI, Arial, sans-serif" text-anchor="end">
        1.4%
      </text>
      <circle cx="520" cy="290" r="8" fill="#663399" />
      <text x="540" y="295" fill="#e2e8f0" font-size="18" font-family="Segoe UI, Arial, sans-serif">
        CSS
      </text>
      <text x="810" y="295" fill="#f8fafc" font-size="18" font-family="Segoe UI, Arial, sans-serif" text-anchor="end">
        0.9%
      </text>
      <circle cx="520" cy="332" r="8" fill="#f1e05a" />
      <text x="540" y="337" fill="#e2e8f0" font-size="18" font-family="Segoe UI, Arial, sans-serif">
        JavaScript
      </text>
      <text x="810" y="337" fill="#f8fafc" font-size="18" font-family="Segoe UI, Arial, sans-serif" text-anchor="end">
        0.1%
      </text>
      <circle cx="520" cy="374" r="8" fill="#94a3b8" />
      <text x="540" y="379" fill="#e2e8f0" font-size="18" font-family="Segoe UI, Arial, sans-serif">
        Other
      </text>
      <text x="810" y="379" fill="#f8fafc" font-size="18" font-family="Segoe UI, Arial, sans-serif" text-anchor="end">
        0.2%
      </text>

  <line x1="520" y1="390" x2="838" y2="390" stroke="#1e293b" stroke-width="1" />
  <text x="520" y="420" fill="#94a3b8" font-size="14" font-family="Segoe UI, Arial, sans-serif">
    Updated 2026-04-08 01:31 UTC
  </text>
</svg>
